<?xml version="1.0" encoding="iso-8859-1"?>
<!-- Uploaded to: SVG Repo, www.svgrepo.com, Generator: SVG Repo Mixer Tools -->
<svg fill="#000000" version="1.1" class="custom-svg" id="Layer_1" xmlns="http://www.w3.org/2000/svg" xmlns:xlink="http://www.w3.org/1999/xlink"
	 viewBox="0 0 512 512" xml:space="preserve">
<g>
	<g>
		<path d="M458.69,110.133v0.001V181.6h35.825c-0.957,62.006-12.801,115.897-35.261,160.278
			c-18.641,36.834-44.629,67.298-77.244,90.542c-42.814,30.514-86.186,40.575-104.349,43.63v-25.683
			c46.831-11.668,89.243-38.929,119.998-77.303c32.57-40.637,50.508-91.989,50.508-144.595C448.167,102.49,347.872,0,224.591,0
			S1.015,102.49,1.015,228.467c0,52.606,17.938,103.958,50.508,144.595c30.756,38.374,73.167,65.636,119.998,77.303V512h106.141
			v-19.303c18.037-2.688,65.39-12.598,113.201-46.449c34.965-24.756,62.814-57.214,82.776-96.474
			c23.784-46.776,36.308-103.324,37.278-168.174h0.069v-71.467H458.69z M261.262,495.6h-0.001h-73.34v-41.778
			c11.989,2.057,24.278,3.112,36.67,3.112c12.4,0,24.696-1.056,36.67-3.111V495.6z M267.681,435.865
			c-13.933,3.099-28.43,4.67-43.091,4.67c-14.661,0-29.158-1.571-43.091-4.67l-0.045-0.01
			c-45.718-9.903-87.318-35.844-117.137-73.049c-30.247-37.739-46.904-85.446-46.904-134.339
			C17.415,111.533,110.353,16.4,224.591,16.4s207.176,95.133,207.176,212.067c0,48.892-16.657,96.601-46.904,134.339
			C355.044,400.011,313.444,425.952,267.681,435.865z M494.586,165.2H475.09v-38.666h19.496V165.2z"/>
	</g>
</g>
<g>
	<g>
		<path d="M224.591,128.489c-54.005,0-97.94,44.851-97.94,99.978c0,55.128,43.936,99.977,97.94,99.977
			c54.005,0,97.94-44.849,97.94-99.977C322.532,173.339,278.596,128.489,224.591,128.489z M224.59,312.044
			c-44.961,0-81.54-37.493-81.54-83.577c0-46.085,36.578-83.578,81.54-83.578c44.961,0,81.54,37.493,81.54,83.578
			C306.13,274.552,269.552,312.044,224.59,312.044z"/>
	</g>
</g>
<g>
	<g>
		<path d="M224.591,183.556c-24.314,0-44.096,20.147-44.096,44.911c0,24.764,19.781,44.911,44.096,44.911
			c24.314,0,44.097-20.147,44.097-44.911C268.688,203.704,248.907,183.556,224.591,183.556z M224.591,256.978
			c-15.272,0-27.696-12.789-27.696-28.511c0-15.721,12.424-28.511,27.696-28.511c15.272,0,27.696,12.789,27.696,28.511
			S239.864,256.978,224.591,256.978z"/>
	</g>
</g>
<g>
	<g>
		<path d="M45.885,228.467h16.401c0-91.631,72.81-166.177,162.306-166.177v-16.4C126.052,45.89,45.885,127.794,45.885,228.467z"/>
	</g>
</g>
<g>
	<g>
		<path d="M386.897,228.467c0,91.631-72.81,166.176-162.306,166.176v16.4c98.54,0,178.706-81.904,178.706-182.577H386.897z"/>
	</g>
</g>
<g>
	<g>
		<rect x="45.112" y="247.8" width="17.948" height="16.401"/>
	</g>
</g>
<g>
	<g>
		<rect x="386.122" y="192.738" width="17.949" height="16.4"/>
	</g>
</g>
<g>
	<g>
		<rect x="368.18" y="174.381" width="17.949" height="16.4"/>
	</g>
</g>
<g>
	<g>
		<rect x="63.059" y="266.158" width="17.949" height="16.401"/>
	</g>
</g>
<g>
	<g>
		<rect x="215.623" y="220.269" width="17.948" height="16.4"/>
	</g>
</g>
<g>
	<g>
		<rect x="206.646" y="468.07" width="35.896" height="16.4"/>
	</g>
</g>
</svg>
