<?xml version="1.0" ?>
<!-- Uploaded to: SVG Repo, www.svgrepo.com, Generator: SVG Repo Mixer Tools -->
<svg fill="#000000" width="800px" height="800px" viewBox="0 0 100 100" id="Layer_1" version="1.1" xml:space="preserve" xmlns="http://www.w3.org/2000/svg" xmlns:xlink="http://www.w3.org/1999/xlink">
<g id="tree"/>
<g id="plant"/>
<g id="flower"/>
<g id="flower_pot"/>
<g id="rose"/>
<g id="garden"/>
<g id="fance"/>
<g id="floral"/>
<g id="sunflower"/>
<g id="sprinkle"/>
<g id="water_hose"/>
<g id="planting"/>
<g id="fertilizer"/>
<g id="bee"/>
<g id="butterfly"/>
<g id="shovel">
<g>
<path d="M92.8,75.1c-0.3-0.2-0.6-0.4-0.9-0.6s-0.8-0.7-1.2-1.2c-0.8-0.9-1.7-1.9-3-2.4c-0.9-0.3-1.9-0.2-2.8-0.1    c-0.7,0.1-1.4,0.2-2,0.1c-0.5-0.1-1-0.5-1.6-0.9c-0.8-0.6-1.8-1.2-2.9-1.3c-1-0.1-1.9,0.2-2.8,0.5c-0.7,0.2-1.4,0.5-1.9,0.4    c-0.1,0-0.2,0-0.2,0c1.6-1.8,3-3.8,4.1-6l3.3-6.5c0.3-0.5,0.1-1.1-0.4-1.3l-6.2-3.3L81.5,38c0.1-0.3,0.4-0.5,0.7-0.5l3-0.5    c0.9-0.2,1.7-0.8,2.2-1.6l3.2-6.3c0.8-1.5,0.2-3.3-1.3-4.1l-8.9-4.7c-0.7-0.4-1.5-0.4-2.3-0.2c-0.8,0.2-1.4,0.8-1.8,1.5l-3.2,6.3    c-0.4,0.8-0.4,1.8,0,2.7l1.3,2.7c0.1,0.3,0.1,0.6,0,0.9L67,48.6l-6.2-3.3c-0.2-0.1-0.5-0.1-0.8-0.1c-0.3,0.1-0.5,0.3-0.6,0.5    l-3.3,6.5c-2.9,5.7-3.8,12.2-2.7,18.5c-0.1,0-0.3,0-0.4-0.1c-0.9-0.1-1.9-0.3-2.8,0.1c-0.1,0-0.2,0.1-0.3,0.2    c-0.1-0.1-0.2-0.1-0.3-0.2c-0.9-0.3-1.9-0.2-2.8-0.1c-0.1,0-0.3,0-0.4,0.1c1.2-6.3,0.2-12.8-2.7-18.5l-3.3-6.5    c-0.1-0.2-0.3-0.4-0.6-0.5s-0.5-0.1-0.8,0.1l-6.2,3.3l-7.4-14.4c-0.1-0.3-0.2-0.6,0-0.9l1.3-2.7c0.4-0.9,0.4-1.9,0-2.7l-3.2-6.3    c-0.4-0.7-1-1.3-1.8-1.5s-1.6-0.2-2.3,0.2L10.6,25c-1.5,0.8-2,2.6-1.3,4.1l3.2,6.3c0.4,0.8,1.2,1.4,2.2,1.6l3,0.5    c0.3,0.1,0.6,0.3,0.7,0.5l7.4,14.4l-6.2,3.3c-0.5,0.3-0.7,0.9-0.4,1.3l3.3,6.5c1.1,2.2,2.5,4.2,4.1,6c-0.1,0-0.2,0-0.2,0    c-0.6,0-1.2-0.2-1.9-0.4c-0.9-0.3-1.8-0.6-2.8-0.5c-1.1,0.2-2,0.8-2.9,1.4c-0.6,0.4-1.2,0.8-1.6,0.9c-0.6,0.1-1.3,0-2-0.1    c-0.9-0.1-1.9-0.3-2.8,0.1c-1.3,0.5-2.2,1.5-3,2.4c-0.4,0.5-0.8,0.9-1.2,1.1c-0.3,0.2-0.6,0.4-0.9,0.6C5.6,76.1,4,77.1,4,79    c0,0.6,0.4,1,1,1h38h14h38c0.6,0,1-0.4,1-1C96,77.2,94.4,76.1,92.8,75.1z M68.8,49.6l7.4-14.4c0.4-0.8,0.4-1.8,0-2.7l-1.3-2.7    c-0.1-0.3-0.1-0.6,0-0.9l3.2-6.3c0.1-0.2,0.3-0.4,0.6-0.5c0.3-0.1,0.5-0.1,0.8,0.1l8.9,4.7l0,0c0.5,0.3,0.7,0.9,0.4,1.4l-3.2,6.3    c-0.1,0.3-0.4,0.5-0.7,0.5l-3,0.5c-0.9,0.2-1.7,0.8-2.2,1.6l-7.4,14.4l-2.2-1.2L68.8,49.6z M58,53.3l2.9-5.6l8.6,4.5l2.9,1.5l0,0    l6.2,3.3l-2.9,5.6c-1.1,2.2-2.6,4.3-4.3,6.1C70.7,68.3,69.9,68,69,68c-1.1,0-2,0.5-2.9,0.9c-0.6,0.3-1.3,0.6-1.8,0.7    c-0.6,0-1.2-0.2-1.9-0.4c-0.9-0.3-1.8-0.6-2.8-0.5c-1.1,0.2-2,0.8-2.9,1.4c-0.4,0.3-0.9,0.6-1.3,0.8C54.4,64.8,55.2,58.6,58,53.3z     M20.2,37.1c-0.4-0.8-1.2-1.4-2.2-1.6L15,35c-0.3-0.1-0.6-0.3-0.7-0.5l-3.2-6.3c-0.3-0.5-0.1-1.1,0.4-1.4l0,0l8.9-4.7    c0.1-0.1,0.3-0.1,0.5-0.1c0.1,0,0.2,0,0.3,0c0.3,0.1,0.5,0.3,0.6,0.5l3.2,6.3c0.1,0.3,0.2,0.6,0,0.9l-1.3,2.7    c-0.4,0.8-0.4,1.9,0,2.7l7.4,14.4l-3.6,1.9L20.2,37.1z M21.4,57l6.2-3.2l0,0l5.3-2.8l0,0l6.2-3.3l2.9,5.6    c2.7,5.4,3.6,11.5,2.4,17.5c-0.4-0.2-0.8-0.5-1.2-0.7c-0.8-0.6-1.8-1.2-2.9-1.3c-1-0.1-1.9,0.2-2.8,0.5c-0.7,0.2-1.4,0.5-1.9,0.4    c-0.5,0-1.1-0.3-1.8-0.7c-0.8-0.5-1.7-1-2.8-1c-0.9,0-1.7,0.3-2.4,0.7c-1.7-1.8-3.2-3.8-4.3-6.1L21.4,57z M43,78H6.5    c0.4-0.4,1-0.8,1.8-1.3c0.3-0.2,0.6-0.4,0.9-0.6c0.5-0.4,1-0.9,1.5-1.5c0.7-0.8,1.4-1.6,2.2-1.9c0.5-0.2,1.1-0.1,1.8,0    c0.8,0.1,1.8,0.3,2.8,0c0.8-0.2,1.6-0.7,2.3-1.2c0.7-0.5,1.4-0.9,2-1c0.5-0.1,1.2,0.2,1.9,0.4c0.8,0.3,1.7,0.6,2.7,0.5    c0.8-0.1,1.5-0.4,2.3-0.7l0.2-0.1c0.7-0.4,1.4-0.7,2-0.7s1.3,0.3,2,0.7c0.8,0.4,1.6,0.8,2.5,0.9c1,0.1,1.9-0.3,2.7-0.5    c0.7-0.2,1.4-0.5,1.9-0.4c0.6,0.1,1.3,0.6,2,1c0.7,0.5,1.5,1,2.3,1.2c1,0.2,1.9,0.1,2.8,0c0.7-0.1,1.4-0.2,1.8,0    c0.2,0.1,0.3,0.2,0.5,0.3c0.6,0.4,1.2,1,1.7,1.6s1,1.1,1.5,1.5c0.3,0.2,0.7,0.4,1,0.7c0.8,0.5,1.4,0.9,1.7,1.3H43V78z M57.8,78    c-0.4-1.2-1.7-2.1-3-2.9c-0.3-0.2-0.6-0.4-1-0.6c-0.3-0.2-0.7-0.7-1.2-1.2c-0.2-0.2-0.3-0.4-0.5-0.6c0.2,0,0.5,0.1,0.7,0.1    c0.8,0.1,1.8,0.3,2.8,0c0.8-0.2,1.6-0.7,2.3-1.2s1.4-0.9,2-1c0.5-0.1,1.2,0.2,1.9,0.4c0.8,0.3,1.7,0.6,2.7,0.5    c0.9-0.1,1.7-0.5,2.5-0.9c0.7-0.4,1.4-0.7,2-0.7c0.4,0,0.7,0.1,1.2,0.3l1.7,0.8l0,0c0.5,0.2,1.1,0.4,1.7,0.4    c1,0.1,1.9-0.3,2.7-0.5c0.7-0.2,1.4-0.5,1.9-0.4c0.6,0.1,1.3,0.6,2,1c0.7,0.5,1.5,1,2.3,1.2c1,0.2,1.9,0.1,2.8,0    c0.7-0.1,1.4-0.2,1.8,0c0.8,0.3,1.5,1.1,2.2,1.9c0.5,0.6,1,1.1,1.5,1.5c0.3,0.2,0.7,0.4,1,0.7c0.8,0.5,1.4,0.9,1.8,1.3H57.8V78z"/>
<path d="M79.4,31.2l1.8,0.9c0.4,0.2,0.9,0.3,1.4,0.3c0.3,0,0.6,0,0.9-0.1c0.8-0.2,1.4-0.8,1.8-1.5c0.8-1.5,0.2-3.3-1.3-4.1    l-1.8-0.9c-0.7-0.4-1.5-0.4-2.3-0.2c-0.8,0.2-1.4,0.8-1.8,1.5C77.4,28.6,77.9,30.4,79.4,31.2z M79.9,28c0.1-0.2,0.3-0.4,0.6-0.5    c0.1,0,0.2,0,0.3,0c0.2,0,0.3,0,0.5,0.1l1.8,0.9c0.5,0.3,0.7,0.9,0.4,1.4c-0.1,0.2-0.3,0.4-0.6,0.5c-0.3,0.1-0.5,0.1-0.8-0.1l0,0    l-1.8-0.9C79.8,29.1,79.6,28.5,79.9,28z"/>
<path d="M20.1,25.6c-0.8-0.2-1.6-0.2-2.3,0.2L16,26.7c-1.5,0.8-2,2.6-1.3,4.1c0.4,0.7,1,1.3,1.8,1.5c0.3,0.1,0.6,0.1,0.9,0.1    c0.5,0,0.9-0.1,1.4-0.3l1.8-0.9c1.5-0.8,2-2.6,1.3-4.1C21.5,26.4,20.8,25.8,20.1,25.6z M19.6,29.4l-1.8,0.9    c-0.2,0.1-0.5,0.1-0.8,0.1c-0.3-0.1-0.5-0.3-0.6-0.5c-0.3-0.5-0.1-1.1,0.4-1.4l1.8-0.9c0.1-0.1,0.3-0.1,0.5-0.1c0.1,0,0.2,0,0.3,0    c0.3,0.1,0.5,0.3,0.6,0.5C20.3,28.5,20.1,29.1,19.6,29.4z"/>
</g>
</g>
<g id="ladybug"/>
<g id="watering"/>
<g id="hanging_pot"/>
<g id="green_house"/>
</svg>